<svg width="64" height="64" viewBox="0 0 64 64" xmlns="http://www.w3.org/2000/svg">
  <!-- lock body (no big square background) -->
  <rect x="14" y="28" width="28" height="28" rx="6" fill="#FFD740"/>
  <rect x="14" y="28" width="28" height="10" rx="6" fill="#FFC400"/>

  <!-- shackle -->
  <path d="M20 28 V19 Q20 11 28 11 Q36 11 36 19 V28" fill="none" stroke="#FFC400" stroke-width="6" stroke-linecap="round"/>
  <path d="M20 28 V19 Q20 11 28 11 Q36 11 36 19 V28" fill="none" stroke="#FFD740" stroke-width="4" stroke-linecap="round"/>

  <!-- keyhole -->
  <circle cx="28" cy="42" r="5" fill="#E65100"/>
  <rect x="26.5" y="42" width="3" height="7" rx="1.5" fill="#E65100"/>

  <!-- subtle shine -->
  <ellipse cx="18" cy="34" rx="5.5" ry="2.6" fill="rgba(255,255,255,0.22)" transform="rotate(-15,18,34)"/>

  <!-- person badge -->
  <circle cx="50" cy="50" r="11" fill="white" stroke="#FFC400" stroke-width="1.5"/>
  <circle cx="50" cy="46" r="4" fill="#FFC400"/>
  <path d="M42.5 60 Q43.5 54 50 54 Q56.5 54 57.5 60" fill="#FFC400"/>
</svg>
