<svg width="64" height="64" viewBox="0 0 64 64" xmlns="http://www.w3.org/2000/svg">
  <rect x="8" y="26" width="40" height="34" rx="8" fill="#FFD740"/>
  <rect x="8" y="26" width="40" height="13" rx="8" fill="#FFC400"/>
  <path d="M18 26 L18 15 Q28 3 38 15 L38 26" fill="none" stroke="#FFC400" stroke-width="6" stroke-linecap="round"/>
  <path d="M18 26 L18 15 Q28 3 38 15 L38 26" fill="none" stroke="#FFD740" stroke-width="4" stroke-linecap="round"/>
  <circle cx="28" cy="41" r="6" fill="#FFC400"/>
  <rect x="25" y="41" width="6" height="8" rx="2" fill="#FFC400"/>
  <ellipse cx="17" cy="31" rx="6" ry="3" fill="rgba(255,255,255,0.25)" transform="rotate(-15,17,31)"/>
  <circle cx="52" cy="52" r="13" fill="white" stroke="#FFD740" stroke-width="1.5"/>
  <circle cx="52" cy="47" r="4.5" fill="#FFD740"/>
  <path d="M43 62 Q44 55 52 55 Q60 55 61 62" fill="#FFD740"/>
</svg>
